
<svg version="1.1" class="highcharts-root" style="font-family:&quot;lucida grande&quot;, &quot;lucida sans unicode&quot;, arial, helvetica, sans-serif;font-size:12px;" xmlns="http://www.w3.org/2000/svg" viewBox="0 0 584 400">
	<desc>Created with Highcharts 5.0.12
	</desc>
	<defs>
		<clipPath id="highcharts-kvh1pyt-1">
			<rect x="0" y="0" width="584" height="400" fill="none">
			</rect>
		</clipPath>
	</defs>
	<rect fill="#ffffff" class="highcharts-background" x="0" y="0" width="584" height="400" rx="0" ry="0">
	</rect>
	<rect fill="none" class="highcharts-plot-background" x="72" y="63" width="502" height="260">
	</rect>
	<g stroke-linejoin="round" class="highcharts-3d-frame highcharts-3d-frame-bottom">
		<path fill="rgb(255,255,255)" fill-opacity="0" d="M 124.8 284.9 L 529.3 323.8 L 532.7 308.1 L 141.7 272.0 Z" visibility="hidden">
		</path>
		<path fill="rgb(255,255,255)" fill-opacity="0" d="M 142.0 271.5 L 532.7 307.6 L 529.3 323 L 125.5 284.2 Z" visibility="visible">
		</path>
		<path fill="rgb(230,230,230)" fill-opacity="0" d="M 124.8 284.9 L 141.7 272.0 L 142.0 271.5 L 125.5 284.2 Z" visibility="hidden">
		</path>
		<path fill="rgb(230,230,230)" fill-opacity="0" d="M 532.7 308.1 L 529.3 323.8 L 529.3 323 L 532.7 307.6 Z" visibility="visible">
		</path>
		<path fill="rgb(255,255,255)" fill-opacity="0" d="M 529.3 323.8 L 124.8 284.9 L 125.5 284.2 L 529.3 323 Z" visibility="visible">
		</path>
		<path fill="rgb(255,255,255)" fill-opacity="0" d="M 141.7 272.0 L 532.7 308.1 L 532.7 307.6 L 142.0 271.5 Z" visibility="hidden">
		</path>
	</g>
	<g stroke-linejoin="round" class="highcharts-3d-frame highcharts-3d-frame-left">
		<path fill="rgb(255,255,255)" fill-opacity="0" d="M 124.8 284.9 L 125.5 284.2 L 142.0 271.5 L 141.7 272.0 Z" visibility="hidden">
		</path>
		<path fill="rgb(255,255,255)" fill-opacity="0" d="M 132.5 73.1 L 132.9 73.2 L 115.1 79.3 L 114.4 79.3 Z" visibility="visible">
		</path>
		<path fill="rgb(230,230,230)" fill-opacity="0" d="M 141.7 272.0 L 132.5 73.1 L 114.4 79.3 L 124.8 284.9 Z" visibility="hidden">
		</path>
		<path fill="rgb(230,230,230)" fill-opacity="0" d="M 132.9 73.2 L 142.0 271.5 L 125.5 284.2 L 115.1 79.3 Z" visibility="visible">
		</path>
		<path fill="rgb(255,255,255)" fill-opacity="0" d="M 124.8 284.9 L 114.4 79.3 L 115.1 79.3 L 125.5 284.2 Z" visibility="visible">
		</path>
		<path fill="rgb(255,255,255)" fill-opacity="0" d="M 132.5 73.1 L 141.7 272.0 L 142.0 271.5 L 132.9 73.2 Z" visibility="hidden">
		</path>
	</g>
	<g stroke-linejoin="round" class="highcharts-3d-frame highcharts-3d-frame-back">
		<path fill="rgb(255,255,255)" fill-opacity="0" d="M 532.7 308.1 L 141.7 272.0 L 142.0 271.5 L 532.7 307.6 Z" visibility="hidden">
		</path>
		<path fill="rgb(255,255,255)" fill-opacity="0" d="M 132.5 73.1 L 544.5 90.5 L 544.4 90.6 L 132.9 73.2 Z" visibility="visible">
		</path>
		<path fill="rgb(230,230,230)" fill-opacity="0" d="M 141.7 272.0 L 132.5 73.1 L 132.9 73.2 L 142.0 271.5 Z" visibility="hidden">
		</path>
		<path fill="rgb(230,230,230)" fill-opacity="0" d="M 544.5 90.5 L 532.7 308.1 L 532.7 307.6 L 544.4 90.6 Z" visibility="visible">
		</path>
		<path fill="rgb(255,255,255)" fill-opacity="0" d="M 132.9 73.2 L 544.4 90.6 L 532.7 307.6 L 142.0 271.5 Z" visibility="visible">
		</path>
		<path fill="rgb(255,255,255)" fill-opacity="0" d="M 141.7 272.0 L 532.7 308.1 L 544.5 90.5 L 132.5 73.1 Z" visibility="hidden">
		</path>
	</g>
	<g class="highcharts-grid highcharts-xaxis-grid ">
		<path fill="none" stroke="#e6e6e6" stroke-width="1" class="highcharts-grid-line" d="M 151.1 74.0 L 159.5 273.1 M 143.5 285.9 L 159.5 273.1" opacity="1">
		</path>
		<path fill="none" stroke="#e6e6e6" stroke-width="1" class="highcharts-grid-line" d="M 213.5 76.6 L 218.9 278.6 M 204.8 291.8 L 218.9 278.6" opacity="1">
		</path>
		<path fill="none" stroke="#e6e6e6" stroke-width="1" class="highcharts-grid-line" d="M 277.9 79.4 L 280.2 284.3 M 268.0 297.9 L 280.2 284.3" opacity="1">
		</path>
		<path fill="none" stroke="#e6e6e6" stroke-width="1" class="highcharts-grid-line" d="M 345.3 82.2 L 344.1 290.2 M 334.1 304.2 L 344.1 290.2" opacity="1">
		</path>
		<path fill="none" stroke="#e6e6e6" stroke-width="1" class="highcharts-grid-line" d="M 414.0 85.1 L 409.3 296.2 M 401.5 310.7 L 409.3 296.2" opacity="1">
		</path>
		<path fill="none" stroke="#e6e6e6" stroke-width="1" class="highcharts-grid-line" d="M 485.0 88.1 L 476.5 302.5 M 471.1 317.4 L 476.5 302.5" opacity="1">
		</path>
	</g>
	<g class="highcharts-grid highcharts-zaxis-grid ">
	</g>
	<g class="highcharts-grid highcharts-yaxis-grid ">
		<path fill="none" stroke="#e6e6e6" stroke-width="1" class="highcharts-grid-line" d="M 142.0 271.9 L 532.6 308.0 M 125.5 284.5 L 142.0 271.9" opacity="1">
		</path>
		<path fill="none" stroke="#e6e6e6" stroke-width="1" class="highcharts-grid-line" d="M 140.3 233.8 L 534.9 266.5 M 123.5 245.2 L 140.3 233.8" opacity="1">
		</path>
		<path fill="none" stroke="#e6e6e6" stroke-width="1" class="highcharts-grid-line" d="M 138.5 194.9 L 537.2 224.1 M 121.5 205.1 L 138.5 194.9" opacity="1">
		</path>
		<path fill="none" stroke="#e6e6e6" stroke-width="1" class="highcharts-grid-line" d="M 136.7 155.3 L 539.5 180.7 M 119.4 164.2 L 136.7 155.3" opacity="1">
		</path>
		<path fill="none" stroke="#e6e6e6" stroke-width="1" class="highcharts-grid-line" d="M 134.8 114.9 L 541.9 136.4 M 117.3 122.4 L 134.8 114.9" opacity="1">
		</path>
		<path fill="none" stroke="#e6e6e6" stroke-width="1" class="highcharts-grid-line" d="M 132.8 72.8 L 544.4 90.2 M 115.1 78.9 L 132.8 72.8" opacity="1">
		</path>
	</g>
	<rect fill="none" class="highcharts-plot-border" x="72" y="63" width="502" height="260">
	</rect>
	<g class="highcharts-axis highcharts-xaxis ">
		<path fill="none" class="highcharts-axis-line" stroke="#ccd6eb" stroke-width="1" d="M 0 0">
		</path>
	</g>
	<g class="highcharts-axis highcharts-zaxis ">
		<path fill="none" class="highcharts-axis-line" d="M 0 0">
		</path>
	</g>
	<g class="highcharts-axis highcharts-yaxis ">
		<text x="74.5" text-anchor="middle" transform="translate(0,0) rotate(270 74.5 184.4)" class="highcharts-axis-title" style="color:#666666;fill:#666666;" y="184.4" z="58.7">Values
		</text>
		<path fill="none" class="highcharts-axis-line" d="M 0 0">
		</path>
	</g>
	<g class="highcharts-markers highcharts-series-0 highcharts-column-series highcharts-color-0 highcharts-tracker" transform="translate(72,63) scale(1 1)" clip-path="none">
		<g stroke-linejoin="round" stroke="#7cb5ec" stroke-width="1" class="highcharts-point highcharts-color-0">
			<path fill="#7cb5ec" d="M 64.5 222.3 L 79.2 223.7 L 78.1 200.3 L 63.3 198.9 Z" class="highcharts-3d-front">
			</path>
			<path fill="rgb(149,206,255)" d="M 78.1 200.3 L 86.2 194.1 L 71.6 192.8 L 63.3 198.9 Z" class="highcharts-3d-top">
			</path>
			<path fill="rgb(99,156,211)" d="M 78.1 200.3 L 79.2 223.7 L 87.2 217.2 L 86.2 194.1 Z" class="highcharts-3d-side">
			</path>
		</g>
		<g stroke-linejoin="round" stroke="#7cb5ec" stroke-width="1" class="highcharts-point highcharts-color-0">
			<path fill="#7cb5ec" d="M 94.8 225.2 L 109.7 226.6 L 107.6 169.8 L 92.5 168.5 Z" class="highcharts-3d-front">
			</path>
			<path fill="rgb(149,206,255)" d="M 107.6 169.8 L 115.3 164.1 L 100.4 162.9 L 92.5 168.5 Z" class="highcharts-3d-top">
			</path>
			<path fill="rgb(99,156,211)" d="M 107.6 169.8 L 109.7 226.6 L 117.2 220.0 L 115.3 164.1 Z" class="highcharts-3d-side">
			</path>
		</g>
		<g stroke-linejoin="round" stroke="#7cb5ec" stroke-width="1" class="highcharts-point highcharts-color-0">
			<path fill="#7cb5ec" d="M 125.5 228.2 L 140.7 229.6 L 138.2 143.1 L 122.7 141.9 Z" class="highcharts-3d-front">
			</path>
			<path fill="rgb(149,206,255)" d="M 138.2 143.1 L 145.5 137.7 L 130.2 136.6 L 122.7 141.9 Z" class="highcharts-3d-top">
			</path>
			<path fill="rgb(99,156,211)" d="M 138.2 143.1 L 140.7 229.6 L 147.7 222.9 L 145.5 137.7 Z" class="highcharts-3d-side">
			</path>
		</g>
		<g stroke-linejoin="round" stroke="#7cb5ec" stroke-width="1" class="highcharts-point highcharts-color-0">
			<path fill="#7cb5ec" d="M 156.7 231.2 L 172.1 232.6 L 170.0 126.9 L 154.2 125.8 Z" class="highcharts-3d-front">
			</path>
			<path fill="rgb(149,206,255)" d="M 170.0 126.9 L 176.8 121.8 L 161.2 120.7 L 154.2 125.8 Z" class="highcharts-3d-top">
			</path>
			<path fill="rgb(99,156,211)" d="M 170.0 126.9 L 172.1 232.6 L 178.7 225.8 L 176.8 121.8 Z" class="highcharts-3d-side">
			</path>
		</g>
		<g stroke-linejoin="round" stroke="#7cb5ec" stroke-width="1" class="highcharts-point highcharts-color-0">
			<path fill="#7cb5ec" d="M 189.2 234.3 L 204.9 235.8 L 203.5 116.1 L 187.3 115.1 Z" class="highcharts-3d-front">
			</path>
			<path fill="rgb(149,206,255)" d="M 203.5 116.1 L 209.7 111.2 L 193.9 110.1 L 187.3 115.1 Z" class="highcharts-3d-top">
			</path>
			<path fill="rgb(99,156,211)" d="M 203.5 116.1 L 204.9 235.8 L 210.9 228.9 L 209.7 111.2 Z" class="highcharts-3d-side">
			</path>
		</g>
		<g stroke-linejoin="round" stroke="#7cb5ec" stroke-width="1" class="highcharts-point highcharts-color-0">
			<path fill="#7cb5ec" d="M 221.5 237.4 L 237.4 238.9 L 236.9 90.8 L 220.4 89.8 Z" class="highcharts-3d-front">
			</path>
			<path fill="rgb(149,206,255)" d="M 236.9 90.8 L 242.6 86.3 L 226.4 85.3 L 220.4 89.8 Z" class="highcharts-3d-top">
			</path>
			<path fill="rgb(99,156,211)" d="M 236.9 90.8 L 237.4 238.9 L 242.9 231.9 L 242.6 86.3 Z" class="highcharts-3d-side">
			</path>
		</g>
		<g stroke-linejoin="round" stroke="#7cb5ec" stroke-width="1" class="highcharts-point highcharts-color-0">
			<path fill="#7cb5ec" d="M 254.2 240.5 L 270.4 242.1 L 271.0 128.1 L 254.3 127.0 Z" class="highcharts-3d-front">
			</path>
			<path fill="rgb(149,206,255)" d="M 271.0 128.1 L 276.1 122.9 L 259.7 121.8 L 254.3 127.0 Z" class="highcharts-3d-top">
			</path>
			<path fill="rgb(99,156,211)" d="M 271.0 128.1 L 270.4 242.1 L 275.4 234.9 L 276.1 122.9 Z" class="highcharts-3d-side">
			</path>
		</g>
		<g stroke-linejoin="round" stroke="#7cb5ec" stroke-width="1" class="highcharts-point highcharts-color-0">
			<path fill="#7cb5ec" d="M 287.5 243.7 L 303.9 245.3 L 305.7 119.6 L 288.7 118.5 Z" class="highcharts-3d-front">
			</path>
			<path fill="rgb(149,206,255)" d="M 305.7 119.6 L 310.2 114.4 L 293.5 113.4 L 288.7 118.5 Z" class="highcharts-3d-top">
			</path>
			<path fill="rgb(99,156,211)" d="M 305.7 119.6 L 303.9 245.3 L 308.3 238.0 L 310.2 114.4 Z" class="highcharts-3d-side">
			</path>
		</g>
		<g stroke-linejoin="round" stroke="#7cb5ec" stroke-width="1" class="highcharts-point highcharts-color-0">
			<path fill="#7cb5ec" d="M 321.3 247.0 L 338.0 248.6 L 342.2 60.7 L 324.7 59.8 Z" class="highcharts-3d-front">
			</path>
			<path fill="rgb(149,206,255)" d="M 342.2 60.7 L 346.2 56.5 L 329.0 55.7 L 324.7 59.8 Z" class="highcharts-3d-top">
			</path>
			<path fill="rgb(99,156,211)" d="M 342.2 60.7 L 338.0 248.6 L 341.8 241.2 L 346.2 56.5 Z" class="highcharts-3d-side">
			</path>
		</g>
		<g stroke-linejoin="round" stroke="#7cb5ec" stroke-width="1" class="highcharts-point highcharts-color-0">
			<path fill="#7cb5ec" d="M 355.7 250.3 L 372.7 251.9 L 378.0 82.7 L 360.3 81.8 Z" class="highcharts-3d-front">
			</path>
			<path fill="rgb(149,206,255)" d="M 378.0 82.7 L 381.2 78.2 L 363.8 77.2 L 360.3 81.8 Z" class="highcharts-3d-top">
			</path>
			<path fill="rgb(99,156,211)" d="M 378.0 82.7 L 372.7 251.9 L 375.9 244.4 L 381.2 78.2 Z" class="highcharts-3d-side">
			</path>
		</g>
		<g stroke-linejoin="round" stroke="#7cb5ec" stroke-width="1" class="highcharts-point highcharts-color-0">
			<path fill="#7cb5ec" d="M 390.6 253.6 L 407.9 255.3 L 411.2 173.6 L 393.6 172.2 Z" class="highcharts-3d-front">
			</path>
			<path fill="rgb(149,206,255)" d="M 411.2 173.6 L 413.8 167.3 L 396.5 166.0 L 393.6 172.2 Z" class="highcharts-3d-top">
			</path>
			<path fill="rgb(99,156,211)" d="M 411.2 173.6 L 407.9 255.3 L 410.5 247.7 L 413.8 167.3 Z" class="highcharts-3d-side">
			</path>
		</g>
		<g stroke-linejoin="round" stroke="#7cb5ec" stroke-width="1" class="highcharts-point highcharts-color-0">
			<path fill="#7cb5ec" d="M 426.2 257.0 L 443.7 258.7 L 446.0 211.7 L 428.3 210.2 Z" class="highcharts-3d-front">
			</path>
			<path fill="rgb(149,206,255)" d="M 446.0 211.7 L 448.0 204.8 L 430.5 203.3 L 428.3 210.2 Z" class="highcharts-3d-top">
			</path>
			<path fill="rgb(99,156,211)" d="M 446.0 211.7 L 443.7 258.7 L 445.6 251.0 L 448.0 204.8 Z" class="highcharts-3d-side">
			</path>
		</g>
	</g>
	<g class="highcharts-button highcharts-contextbutton" style="cursor:pointer;" stroke-linecap="round" transform="translate(550,10)">
		<title>Chart context menu
		</title>
		<rect fill="#ffffff" class=" highcharts-button-box" x="0.5" y="0.5" width="24" height="22" rx="2" ry="2" stroke="none" stroke-width="1">
		</rect>
		<path fill="#666666" d="M 6 6.5 L 20 6.5 M 6 11.5 L 20 11.5 M 6 16.5 L 20 16.5" class="highcharts-button-symbol" stroke="#666666" stroke-width="3">
		</path>
		<text x="0" style="font-weight:normal;color:#333333;fill:#333333;" y="12">
		</text>
	</g>
	<text x="292" text-anchor="middle" class="highcharts-title" style="color:#333333;font-size:18px;fill:#333333;" y="24">
		<tspan>.NET转Java历史进度
		</tspan>
	</text>
	<text x="292" text-anchor="middle" class="highcharts-subtitle" style="color:#666666;fill:#666666;" y="46">
		<tspan>携程.NET转Java的历史进度统计信息
		</tspan>
	</text>
	<g class="highcharts-legend" transform="translate(247,358)">
		<rect fill="none" class="highcharts-legend-box" rx="0" ry="0" x="0" y="0" width="91" height="27" visibility="visible">
		</rect>
		<g>

		</g>
	</g>
	<g class="highcharts-axis-labels highcharts-xaxis-labels ">
		<text x="143.9" style="color:#666666;cursor:default;font-size:11px;fill:#666666;" text-anchor="middle" transform="translate(0,0)" y="304.9" z="82.1" opacity="1">
			<tspan>0
			</tspan>
		</text>
		<text x="205.3" style="color:#666666;cursor:default;font-size:11px;fill:#666666;" text-anchor="middle" transform="translate(0,0)" y="310.8" z="64.5" opacity="1">
			<tspan>2
			</tspan>
		</text>
		<text x="268.7" style="color:#666666;cursor:default;font-size:11px;fill:#666666;" text-anchor="middle" transform="translate(0,0)" y="316.9" z="47.0" opacity="1">
			<tspan>4
			</tspan>
		</text>
		<text x="334.1" style="color:#666666;cursor:default;font-size:11px;fill:#666666;" text-anchor="middle" transform="translate(0,0)" y="323.2" z="29.4" opacity="1">
			<tspan>6
			</tspan>
		</text>
		<text x="401.7" style="color:#666666;cursor:default;font-size:11px;fill:#666666;" text-anchor="middle" transform="translate(0,0)" y="329.7" z="11.8" opacity="1">
			<tspan>8
			</tspan>
		</text>
		<text x="471.5" style="color:#666666;cursor:default;font-size:11px;fill:#666666;" text-anchor="middle" transform="translate(0,0)" y="336.4" z="-5.7" opacity="1">
			<tspan>10
			</tspan>
		</text>
	</g>
	<g class="highcharts-axis-labels highcharts-zaxis-labels ">
	</g>
	<g class="highcharts-axis-labels highcharts-yaxis-labels ">
		<text x="110.7" style="color:#666666;cursor:default;font-size:11px;fill:#666666;" text-anchor="end" transform="translate(0,0)" y="287.2" z="88.3" opacity="1">
			<tspan>0
			</tspan>
		</text>
		<text x="108.7" style="color:#666666;cursor:default;font-size:11px;fill:#666666;" text-anchor="end" transform="translate(0,0)" y="247.9" z="76.8" opacity="1">
			<tspan>50
			</tspan>
		</text>
		<text x="106.6" style="color:#666666;cursor:default;font-size:11px;fill:#666666;" text-anchor="end" transform="translate(0,0)" y="207.8" z="65.3" opacity="1">
			<tspan>100
			</tspan>
		</text>
		<text x="104.6" style="color:#666666;cursor:default;font-size:11px;fill:#666666;" text-anchor="end" transform="translate(0,0)" y="167.0" z="53.8" opacity="1">
			<tspan>150
			</tspan>
		</text>
		<text x="102.5" style="color:#666666;cursor:default;font-size:11px;fill:#666666;" text-anchor="end" transform="translate(0,0)" y="125.2" z="42.3" opacity="1">
			<tspan>200
			</tspan>
		</text>
		<text x="100.3" style="color:#666666;cursor:default;font-size:11px;fill:#666666;" text-anchor="end" transform="translate(0,0)" y="82.6" z="30.8" opacity="1">
			<tspan>250
			</tspan>
		</text>
	</g>
	<text x="574" class="highcharts-credits" text-anchor="end" style="cursor:pointer;color:#999999;font-size:9px;fill:#999999;" y="395">www.ctrip.com
	</text>
	<g stroke-linejoin="round" class="highcharts-3d-frame highcharts-3d-frame-top">
		<path fill="rgb(255,255,255)" fill-opacity="0" d="M 132.5 73.1 L 544.5 90.5 L 541.4 98.1 L 114.4 79.3 Z" visibility="hidden">
		</path>
		<path fill="rgb(255,255,255)" fill-opacity="0" d="M 115.1 79.3 L 541.4 98.1 L 544.4 90.6 L 132.9 73.2 Z" visibility="hidden">
		</path>
		<path fill="rgb(230,230,230)" fill-opacity="0" d="M 132.5 73.1 L 114.4 79.3 L 115.1 79.3 L 132.9 73.2 Z" visibility="hidden">
		</path>
		<path fill="rgb(230,230,230)" fill-opacity="0" d="M 541.4 98.1 L 544.5 90.5 L 544.4 90.6 L 541.4 98.1 Z" visibility="hidden">
		</path>
		<path fill="rgb(255,255,255)" fill-opacity="0" d="M 114.4 79.3 L 541.4 98.1 L 541.4 98.1 L 115.1 79.3 Z" visibility="hidden">
		</path>
		<path fill="rgb(255,255,255)" fill-opacity="0" d="M 544.5 90.5 L 132.5 73.1 L 132.9 73.2 L 544.4 90.6 Z" visibility="hidden">
		</path>
	</g>
	<g stroke-linejoin="round" class="highcharts-3d-frame highcharts-3d-frame-right">
		<path fill="rgb(255,255,255)" fill-opacity="0" d="M 532.7 308.1 L 532.7 307.6 L 529.3 323 L 529.3 323.8 Z" visibility="hidden">
		</path>
		<path fill="rgb(255,255,255)" fill-opacity="0" d="M 541.4 98.1 L 541.4 98.1 L 544.4 90.6 L 544.5 90.5 Z" visibility="hidden">
		</path>
		<path fill="rgb(230,230,230)" fill-opacity="0" d="M 541.4 98.1 L 529.3 323 L 532.7 307.6 L 544.4 90.6 Z" visibility="hidden">
		</path>
		<path fill="rgb(230,230,230)" fill-opacity="0" d="M 529.3 323.8 L 541.4 98.1 L 544.5 90.5 L 532.7 308.1 Z" visibility="hidden">
		</path>
		<path fill="rgb(255,255,255)" fill-opacity="0" d="M 541.4 98.1 L 529.3 323.8 L 529.3 323 L 541.4 98.1 Z" visibility="hidden">
		</path>
		<path fill="rgb(255,255,255)" fill-opacity="0" d="M 532.7 308.1 L 544.5 90.5 L 544.4 90.6 L 532.7 307.6 Z" visibility="hidden">
		</path>
	</g>
	<g stroke-linejoin="round" class="highcharts-3d-frame highcharts-3d-frame-front">
		<path fill="rgb(255,255,255)" fill-opacity="0" d="M 124.8 284.9 L 529.3 323.8 L 529.3 323 L 125.5 284.2 Z" visibility="hidden">
		</path>
		<path fill="rgb(255,255,255)" fill-opacity="0" d="M 541.4 98.1 L 114.4 79.3 L 115.1 79.3 L 541.4 98.1 Z" visibility="hidden">
		</path>
		<path fill="rgb(230,230,230)" fill-opacity="0" d="M 114.4 79.3 L 124.8 284.9 L 125.5 284.2 L 115.1 79.3 Z" visibility="hidden">
		</path>
		<path fill="rgb(230,230,230)" fill-opacity="0" d="M 529.3 323.8 L 541.4 98.1 L 541.4 98.1 L 529.3 323 Z" visibility="hidden">
		</path>
		<path fill="rgb(255,255,255)" fill-opacity="0" d="M 541.4 98.1 L 115.1 79.3 L 125.5 284.2 L 529.3 323 Z" visibility="hidden">
		</path>
		<path fill="rgb(255,255,255)" fill-opacity="0" d="M 529.3 323.8 L 124.8 284.9 L 114.4 79.3 L 541.4 98.1 Z" visibility="hidden">
		</path>
	</g>
</svg>